{
    "asset" : {
        "generator" : "Khronos glTF Blender I/O v1.3.48",
        "version" : "2.0"
    },
    "scene" : 0,
    "scenes" : [
        {
            "name" : "Scene",
            "nodes" : [
                0,
                2,
                3,
                4,
                5,
                6,
                7,
                8,
                9,
                10,
                11,
                12,
                13,
                14,
                15,
                16,
                17,
                18,
                19,
                20,
                21,
                22,
                23,
                24,
                25,
                26,
                27,
                28
            ]
        }
    ],
    "nodes" : [
        {
            "mesh" : 0,
            "name" : "pics",
            "scale" : [
                0.4395943880081177,
                0.4395943880081177,
                0.4395943880081177
            ],
            "translation" : [
                4,
                0,
                0
            ]
        },
        {
            "camera" : 0,
            "name" : "Camera_Orientation",
            "rotation" : [
                -0.7071067690849304,
                0,
                0,
                0.7071067690849304
            ]
        },
        {
            "children" : [
                1
            ],
            "name" : "Camera",
            "rotation" : [
                0.483536034822464,
                0.33687159419059753,
                -0.20870360732078552,
                0.7804827094078064
            ],
            "translation" : [
                7.358891487121582,
                4.958309173583984,
                14
            ]
        },
        {
            "mesh" : 1,
            "name" : "Plane",
            "scale" : [
                3.8568363189697266,
                8.412776947021484,
                8.412776947021484
            ],
            "translation" : [
                0,
                0,
                7.00433349609375
            ]
        },
        {
            "mesh" : 1,
            "name" : "Plane.001",
            "scale" : [
                3.8568363189697266,
                8.412776947021484,
                8.412776947021484
            ],
            "translation" : [
                0,
                0,
                -9.821220397949219
            ]
        },
        {
            "mesh" : 1,
            "name" : "Plane.002",
            "scale" : [
                3.8568363189697266,
                8.412776947021484,
                8.412776947021484
            ],
            "translation" : [
                0,
                0,
                -26.646774291992188
            ]
        },
        {
            "mesh" : 1,
            "name" : "Plane.003",
            "scale" : [
                3.8568363189697266,
                8.412776947021484,
                8.412776947021484
            ],
            "translation" : [
                0,
                0,
                -43.472328186035156
            ]
        },
        {
            "mesh" : 1,
            "name" : "Plane.004",
            "scale" : [
                3.8568363189697266,
                8.412776947021484,
                8.412776947021484
            ],
            "translation" : [
                0,
                0,
                -60.297882080078125
            ]
        },
        {
            "mesh" : 0,
            "name" : "pics.001",
            "scale" : [
                0.4395943880081177,
                0.4395943880081177,
                0.4395943880081177
            ],
            "translation" : [
                -3,
                0,
                0
            ]
        },
        {
            "mesh" : 0,
            "name" : "pics.002",
            "scale" : [
                0.4395943880081177,
                0.4395943880081177,
                0.4395943880081177
            ],
            "translation" : [
                3,
                0,
                -8
            ]
        },
        {
            "mesh" : 0,
            "name" : "pics.003",
            "scale" : [
                0.4395943880081177,
                0.4395943880081177,
                0.4395943880081177
            ],
            "translation" : [
                -3,
                0,
                -8
            ]
        },
        {
            "mesh" : 0,
            "name" : "pics.004",
            "scale" : [
                0.4395943880081177,
                0.4395943880081177,
                0.4395943880081177
            ],
            "translation" : [
                4,
                0,
                -18
            ]
        },
        {
            "mesh" : 0,
            "name" : "pics.005",
            "scale" : [
                0.4395943880081177,
                0.4395943880081177,
                0.4395943880081177
            ],
            "translation" : [
                -3,
                0,
                -18
            ]
        },
        {
            "mesh" : 0,
            "name" : "pics.006",
            "scale" : [
                0.4395943880081177,
                0.4395943880081177,
                0.4395943880081177
            ],
            "translation" : [
                -2,
                0,
                -8
            ]
        },
        {
            "mesh" : 0,
            "name" : "pics.007",
            "scale" : [
                0.4395943880081177,
                0.4395943880081177,
                0.4395943880081177
            ],
            "translation" : [
                2,
                0,
                -8
            ]
        },
        {
            "mesh" : 0,
            "name" : "pics.008",
            "scale" : [
                0.4395943880081177,
                0.4395943880081177,
                0.4395943880081177
            ],
            "translation" : [
                1,
                0,
                -8
            ]
        },
        {
            "mesh" : 0,
            "name" : "pics.009",
            "scale" : [
                0.4395943880081177,
                0.4395943880081177,
                0.4395943880081177
            ],
            "translation" : [
                4,
                0,
                -8
            ]
        },
        {
            "mesh" : 1,
            "name" : "Plane.005",
            "scale" : [
                3.8568363189697266,
                8.412776947021484,
                8.412776947021484
            ],
            "translation" : [
                0,
                0,
                -9.821220397949219
            ]
        },
        {
            "mesh" : 0,
            "name" : "pics.010",
            "scale" : [
                0.4395943880081177,
                0.4395943880081177,
                0.4395943880081177
            ],
            "translation" : [
                3,
                0,
                -8
            ]
        },
        {
            "mesh" : 0,
            "name" : "pics.011",
            "scale" : [
                0.4395943880081177,
                0.4395943880081177,
                0.4395943880081177
            ],
            "translation" : [
                2,
                0,
                -8
            ]
        },
        {
            "mesh" : 0,
            "name" : "pics.012",
            "scale" : [
                0.4395943880081177,
                0.4395943880081177,
                0.4395943880081177
            ],
            "translation" : [
                1,
                0,
                -8
            ]
        },
        {
            "mesh" : 0,
            "name" : "pics.013",
            "scale" : [
                0.4395943880081177,
                0.4395943880081177,
                0.4395943880081177
            ],
            "translation" : [
                4,
                0,
                -8
            ]
        },
        {
            "mesh" : 0,
            "name" : "pics.014",
            "scale" : [
                0.4395943880081177,
                0.4395943880081177,
                0.4395943880081177
            ],
            "translation" : [
                0.5,
                0,
                -14
            ]
        },
        {
            "mesh" : 0,
            "name" : "pics.015",
            "scale" : [
                0.4395943880081177,
                0.4395943880081177,
                0.4395943880081177
            ],
            "translation" : [
                -0.5,
                0,
                -14
            ]
        },
        {
            "mesh" : 0,
            "name" : "pics.016",
            "scale" : [
                0.4395943880081177,
                0.4395943880081177,
                0.4395943880081177
            ],
            "translation" : [
                -1.5,
                0,
                -14
            ]
        },
        {
            "mesh" : 0,
            "name" : "pics.017",
            "scale" : [
                0.4395943880081177,
                0.4395943880081177,
                0.4395943880081177
            ],
            "translation" : [
                1.5,
                0,
                -14
            ]
        },
        {
            "mesh" : 2,
            "name" : "Plane.006",
            "rotation" : [
                0.48408740758895874,
                0.33755406737327576,
                -0.2096005380153656,
                0.7796053290367126
            ],
            "scale" : [
                2.125842571258545,
                2.125842332839966,
                2.1258420944213867
            ],
            "translation" : [
                3.0843327045440674,
                1.296962022781372,
                9.920233726501465
            ]
        },
        {
            "mesh" : 3,
            "name" : "Plane.007",
            "rotation" : [
                0.48408740758895874,
                0.33755406737327576,
                -0.2096005380153656,
                0.7796053290367126
            ],
            "scale" : [
                2.125842571258545,
                2.125842332839966,
                2.1258420944213867
            ],
            "translation" : [
                4.0843329429626465,
                0.29696208238601685,
                10.920233726501465
            ]
        },
        {
            "mesh" : 4,
            "name" : "player",
            "rotation" : [
                0,
                0.9969004988670349,
                0,
                0.0786728784441948
            ],
            "scale" : [
                0.523054301738739,
                0.523054301738739,
                0.523054301738739
            ],
            "translation" : [
                0,
                1,
                11
            ]
        }
    ],
    "cameras" : [
        {
            "name" : "Camera",
            "orthographic" : {
                "xmag" : 8.114285469055176,
                "ymag" : 8.114285469055176,
                "zfar" : 100,
                "znear" : 0.10000000149011612
            },
            "type" : "orthographic"
        }
    ],
    "materials" : [
        {
            "doubleSided" : true,
            "emissiveFactor" : [
                0,
                0,
                0
            ],
            "name" : "palette",
            "pbrMetallicRoughness" : {
                "baseColorTexture" : {
                    "index" : 0,
                    "texCoord" : 0
                },
                "metallicFactor" : 0,
                "roughnessFactor" : 0.4000000059604645
            }
        },
        {
            "alphaCutoff" : 0.5,
            "alphaMode" : "MASK",
            "doubleSided" : true,
            "emissiveFactor" : [
                0,
                0,
                0
            ],
            "name" : "Material",
            "pbrMetallicRoughness" : {
                "baseColorTexture" : {
                    "index" : 1,
                    "texCoord" : 0
                },
                "metallicFactor" : 0,
                "roughnessFactor" : 0.5
            }
        }
    ],
    "meshes" : [
        {
            "name" : "Cube",
            "primitives" : [
                {
                    "attributes" : {
                        "POSITION" : 0,
                        "NORMAL" : 1,
                        "TEXCOORD_0" : 2
                    },
                    "indices" : 3,
                    "material" : 0
                }
            ]
        },
        {
            "name" : "Plane",
            "primitives" : [
                {
                    "attributes" : {
                        "POSITION" : 4,
                        "NORMAL" : 5,
                        "TEXCOORD_0" : 6
                    },
                    "indices" : 7,
                    "material" : 0
                }
            ]
        },
        {
            "name" : "Plane.001",
            "primitives" : [
                {
                    "attributes" : {
                        "POSITION" : 8,
                        "NORMAL" : 9,
                        "TEXCOORD_0" : 10
                    },
                    "indices" : 7,
                    "material" : 1
                }
            ]
        },
        {
            "name" : "Plane.003",
            "primitives" : [
                {
                    "attributes" : {
                        "POSITION" : 11,
                        "NORMAL" : 12,
                        "TEXCOORD_0" : 13
                    },
                    "indices" : 7,
                    "material" : 1
                }
            ]
        },
        {
            "name" : "Suzanne",
            "primitives" : [
                {
                    "attributes" : {
                        "POSITION" : 14,
                        "NORMAL" : 15,
                        "TEXCOORD_0" : 16
                    },
                    "indices" : 17,
                    "material" : 0
                }
            ]
        }
    ],
    "textures" : [
        {
            "sampler" : 0,
            "source" : 0
        },
        {
            "source" : 1
        }
    ],
    "images" : [
        {
            "bufferView" : 4,
            "mimeType" : "image/png",
            "name" : "palette"
        },
        {
            "bufferView" : 12,
            "mimeType" : "image/png",
            "name" : "text"
        }
    ],
    "accessors" : [
        {
            "bufferView" : 0,
            "componentType" : 5126,
            "count" : 96,
            "max" : [
                0.018973559141159058,
                2.1509008407592773,
                2.993419647216797
            ],
            "min" : [
                -2.0822553634643555,
                0.04967212677001953,
                0.004426836967468262
            ],
            "type" : "VEC3"
        },
        {
            "bufferView" : 1,
            "componentType" : 5126,
            "count" : 96,
            "type" : "VEC3"
        },
        {
            "bufferView" : 2,
            "componentType" : 5126,
            "count" : 96,
            "type" : "VEC2"
        },
        {
            "bufferView" : 3,
            "componentType" : 5123,
            "count" : 144,
            "type" : "SCALAR"
        },
        {
            "bufferView" : 5,
            "componentType" : 5126,
            "count" : 4,
            "max" : [
                1,
                0,
                1
            ],
            "min" : [
                -1,
                0,
                -1
            ],
            "type" : "VEC3"
        },
        {
            "bufferView" : 6,
            "componentType" : 5126,
            "count" : 4,
            "type" : "VEC3"
        },
        {
            "bufferView" : 7,
            "componentType" : 5126,
            "count" : 4,
            "type" : "VEC2"
        },
        {
            "bufferView" : 8,
            "componentType" : 5123,
            "count" : 6,
            "type" : "SCALAR"
        },
        {
            "bufferView" : 9,
            "componentType" : 5126,
            "count" : 4,
            "max" : [
                1,
                0.20860156416893005,
                -0.4216196537017822
            ],
            "min" : [
                -1,
                0,
                -1
            ],
            "type" : "VEC3"
        },
        {
            "bufferView" : 10,
            "componentType" : 5126,
            "count" : 4,
            "type" : "VEC3"
        },
        {
            "bufferView" : 11,
            "componentType" : 5126,
            "count" : 4,
            "type" : "VEC2"
        },
        {
            "bufferView" : 13,
            "componentType" : 5126,
            "count" : 4,
            "max" : [
                1,
                0.20860156416893005,
                -0.4216196537017822
            ],
            "min" : [
                -1,
                0,
                -1
            ],
            "type" : "VEC3"
        },
        {
            "bufferView" : 14,
            "componentType" : 5126,
            "count" : 4,
            "type" : "VEC3"
        },
        {
            "bufferView" : 15,
            "componentType" : 5126,
            "count" : 4,
            "type" : "VEC2"
        },
        {
            "bufferView" : 16,
            "componentType" : 5126,
            "count" : 1966,
            "max" : [
                1.3671875,
                0.984375,
                0.8515625
            ],
            "min" : [
                -1.3671875,
                -0.984375,
                -0.8515625
            ],
            "type" : "VEC3"
        },
        {
            "bufferView" : 17,
            "componentType" : 5126,
            "count" : 1966,
            "type" : "VEC3"
        },
        {
            "bufferView" : 18,
            "componentType" : 5126,
            "count" : 1966,
            "type" : "VEC2"
        },
        {
            "bufferView" : 19,
            "componentType" : 5123,
            "count" : 2904,
            "type" : "SCALAR"
        }
    ],
    "bufferViews" : [
        {
            "buffer" : 0,
            "byteLength" : 1152,
            "byteOffset" : 0
        },
        {
            "buffer" : 0,
            "byteLength" : 1152,
            "byteOffset" : 1152
        },
        {
            "buffer" : 0,
            "byteLength" : 768,
            "byteOffset" : 2304
        },
        {
            "buffer" : 0,
            "byteLength" : 288,
            "byteOffset" : 3072
        },
        {
            "buffer" : 0,
            "byteLength" : 106,
            "byteOffset" : 3360
        },
        {
            "buffer" : 0,
            "byteLength" : 48,
            "byteOffset" : 3468
        },
        {
            "buffer" : 0,
            "byteLength" : 48,
            "byteOffset" : 3516
        },
        {
            "buffer" : 0,
            "byteLength" : 32,
            "byteOffset" : 3564
        },
        {
            "buffer" : 0,
            "byteLength" : 12,
            "byteOffset" : 3596
        },
        {
            "buffer" : 0,
            "byteLength" : 48,
            "byteOffset" : 3608
        },
        {
            "buffer" : 0,
            "byteLength" : 48,
            "byteOffset" : 3656
        },
        {
            "buffer" : 0,
            "byteLength" : 32,
            "byteOffset" : 3704
        },
        {
            "buffer" : 0,
            "byteLength" : 5221,
            "byteOffset" : 3736
        },
        {
            "buffer" : 0,
            "byteLength" : 48,
            "byteOffset" : 8960
        },
        {
            "buffer" : 0,
            "byteLength" : 48,
            "byteOffset" : 9008
        },
        {
            "buffer" : 0,
            "byteLength" : 32,
            "byteOffset" : 9056
        },
        {
            "buffer" : 0,
            "byteLength" : 23592,
            "byteOffset" : 9088
        },
        {
            "buffer" : 0,
            "byteLength" : 23592,
            "byteOffset" : 32680
        },
        {
            "buffer" : 0,
            "byteLength" : 15728,
            "byteOffset" : 56272
        },
        {
            "buffer" : 0,
            "byteLength" : 5808,
            "byteOffset" : 72000
        }
    ],
    "samplers" : [
        {
            "magFilter" : 9728,
            "minFilter" : 9984
        }
    ],
    "buffers" : [
        {
            "byteLength" : 77808,
            "uri" : "data:application/octet-stream;base64,"
        }
    ]
}
